<svg width="1013" height="1009" viewBox="0 0 1013 1009" fill="none" xmlns="http://www.w3.org/2000/svg">
<rect x="386.407" y="632.66" width="167.412" height="167.412" rx="8" transform="rotate(-45 386.407 632.66)" fill="black"/>
<rect x="515.781" y="503.286" width="167.412" height="167.412" rx="8" transform="rotate(-45 515.781 503.286)" fill="black"/>
<rect x="257.034" y="762.034" width="167.412" height="167.412" rx="8" transform="rotate(-45 257.034 762.034)" fill="black"/>
<rect x="580.97" y="695.842" width="167.412" height="167.412" rx="8" transform="rotate(-45 580.97 695.842)" fill="black"/>
<rect x="450.593" y="826.219" width="167.412" height="167.412" rx="8" transform="rotate(-45 450.593 826.219)" fill="black"/>
<rect x="451.596" y="309.726" width="167.412" height="167.412" rx="8" transform="rotate(-45 451.596 309.726)" fill="black"/>
<rect x="645.155" y="373.912" width="167.412" height="167.412" rx="8" transform="rotate(-45 645.155 373.912)" fill="black"/>
<rect x="192.848" y="568.474" width="167.412" height="167.412" rx="8" transform="rotate(-45 192.848 568.474)" fill="black"/>
<rect x="129.164" y="374.413" width="168.07" height="168.07" rx="8" transform="rotate(-45 129.164 374.413)" fill="black"/>
<rect x="322.221" y="439.1" width="167.412" height="167.412" rx="8" transform="rotate(-45 322.221 439.1)" fill="black"/>
</svg>
