<svg width="1013" height="1009" viewBox="0 0 1013 1009" fill="none" xmlns="http://www.w3.org/2000/svg">
<path d="M499.129 519.939L392.064 627.003C388.94 630.127 388.94 635.193 392.064 638.317L499.129 745.381C502.253 748.506 507.318 748.506 510.442 745.381L617.507 638.317C620.631 635.193 620.631 630.127 617.507 627.003L510.442 519.939C507.318 516.815 502.253 516.815 499.129 519.939Z" fill="black"/>
<path d="M628.503 390.565L521.438 497.629C518.314 500.753 518.314 505.819 521.438 508.943L628.503 616.007C631.627 619.131 636.692 619.132 639.816 616.007L746.881 508.943C750.005 505.819 750.005 500.753 746.881 497.629L639.816 390.565C636.692 387.441 631.627 387.441 628.503 390.565Z" fill="black"/>
<path d="M369.755 649.313L262.691 756.377C259.567 759.501 259.567 764.567 262.691 767.691L369.755 874.755C372.88 877.879 377.945 877.879 381.069 874.755L488.134 767.691C491.258 764.567 491.258 759.501 488.134 756.377L381.069 649.313C377.945 646.188 372.88 646.188 369.755 649.313Z" fill="black"/>
<path d="M693.691 583.121L586.627 690.185C583.502 693.309 583.502 698.375 586.627 701.499L693.691 808.563C696.815 811.688 701.881 811.688 705.005 808.563L812.069 701.499C815.193 698.375 815.193 693.309 812.069 690.185L705.005 583.121C701.881 579.996 696.815 579.996 693.691 583.121Z" fill="black"/>
<path d="M563.314 713.498L456.25 820.562C453.125 823.686 453.125 828.752 456.25 831.876L563.314 938.94C566.438 942.064 571.504 942.064 574.628 938.94L681.692 831.876C684.816 828.752 684.816 823.686 681.692 820.562L574.628 713.498C571.504 710.373 566.438 710.373 563.314 713.498Z" fill="black"/>
<path d="M564.317 197.005L457.253 304.069C454.128 307.193 454.128 312.259 457.253 315.383L564.317 422.447C567.441 425.572 572.507 425.572 575.631 422.447L682.695 315.383C685.819 312.259 685.819 307.193 682.695 304.069L575.631 197.005C572.507 193.881 567.441 193.881 564.317 197.005Z" fill="black"/>
<path d="M305.569 455.753L198.505 562.817C195.38 565.941 195.38 571.007 198.505 574.131L305.569 681.195C308.693 684.319 313.758 684.319 316.883 681.195L423.947 574.131C427.071 571.007 427.071 565.941 423.947 562.817L316.883 455.753C313.758 452.628 308.693 452.629 305.569 455.753Z" fill="black"/>
<path d="M242.351 261.226L134.821 368.756C131.697 371.88 131.697 376.946 134.821 380.07L242.351 487.6C245.475 490.724 250.54 490.724 253.664 487.6L361.194 380.07C364.318 376.946 364.318 371.88 361.194 368.756L253.664 261.226C250.54 258.102 245.475 258.102 242.351 261.226Z" fill="black"/>
<path d="M434.942 326.379L327.878 433.443C324.753 436.567 324.753 441.633 327.878 444.757L434.942 551.821C438.066 554.945 443.132 554.945 446.256 551.821L553.32 444.757C556.444 441.633 556.444 436.567 553.32 433.443L446.256 326.379C443.132 323.254 438.066 323.254 434.942 326.379Z" fill="black"/>
</svg>
