<svg width="40" height="40" viewBox="0 0 40 40" fill="none" xmlns="http://www.w3.org/2000/svg">
<path d="M37.8841 12.6256C37.8639 11.114 37.5805 9.61747 37.0464 8.20291C36.5833 7.00973 35.876 5.92611 34.9697 5.02128C34.0634 4.11646 32.9779 3.41032 31.7828 2.948C30.3841 2.42382 28.9064 2.14039 27.4127 2.10977C25.4896 2.02395 24.8798 2 19.998 2C15.1162 2 14.4904 2 12.5813 2.10977C11.0883 2.14061 9.61131 2.42404 8.21324 2.948C7.01789 3.41 5.93229 4.11602 5.02592 5.02089C4.11955 5.92575 3.41235 7.00954 2.94958 8.20291C2.42347 9.59823 2.14018 11.0731 2.11195 12.5637C2.02599 14.4856 2 15.0944 2 19.9681C2 24.8418 2 25.4645 2.11195 27.3724C2.14194 28.8653 2.42381 30.3382 2.94958 31.7372C3.41313 32.9302 4.12085 34.0136 5.02753 34.9181C5.9342 35.8225 7.0199 36.5283 8.21524 36.9901C9.60949 37.5354 11.0867 37.8391 12.5833 37.8882C14.5084 37.9741 15.1182 38 20 38C24.8818 38 25.5076 38 27.4167 37.8882C28.9103 37.8589 30.3881 37.5761 31.7868 37.052C32.9816 36.5891 34.0668 35.8828 34.973 34.9781C35.8793 34.0733 36.5868 32.99 37.0504 31.7971C37.5762 30.4 37.8581 28.9272 37.8881 27.4323C37.974 25.5124 38 24.9037 38 20.0279C37.996 15.1542 37.996 14.5355 37.8841 12.6256ZM19.986 29.1846C14.8803 29.1846 10.7441 25.0553 10.7441 19.9581C10.7441 14.8609 14.8803 10.7316 19.986 10.7316C22.4371 10.7316 24.7878 11.7036 26.521 13.434C28.2542 15.1643 29.2279 17.5111 29.2279 19.9581C29.2279 22.4051 28.2542 24.7519 26.521 26.4822C24.7878 28.2125 22.4371 29.1846 19.986 29.1846ZM29.5957 12.5417C29.3127 12.542 29.0323 12.4865 28.7707 12.3785C28.5091 12.2705 28.2715 12.112 28.0713 11.9122C27.8711 11.7124 27.7124 11.4751 27.6042 11.2139C27.496 10.9528 27.4404 10.6729 27.4407 10.3903C27.4407 10.1079 27.4964 9.82825 27.6047 9.56734C27.7129 9.30644 27.8716 9.06937 28.0716 8.86968C28.2716 8.66999 28.5091 8.51159 28.7704 8.40352C29.0318 8.29545 29.3119 8.23983 29.5947 8.23983C29.8776 8.23983 30.1577 8.29545 30.4191 8.40352C30.6804 8.51159 30.9179 8.66999 31.1179 8.86968C31.3179 9.06937 31.4766 9.30644 31.5848 9.56734C31.6931 9.82825 31.7488 10.1079 31.7488 10.3903C31.7488 11.5798 30.7852 12.5417 29.5957 12.5417Z" fill="#97EBE5"/>
<path d="M20 25C22.7614 25 25 22.7614 25 20C25 17.2386 22.7614 15 20 15C17.2386 15 15 17.2386 15 20C15 22.7614 17.2386 25 20 25Z" fill="#97EBE5"/>
</svg>
