<svg width="40" height="40" viewBox="0 0 40 40" fill="none" xmlns="http://www.w3.org/2000/svg">
<path d="M34.4573 10.8623C29.3713 2.99974 18.9874 0.662223 10.9346 5.54976C3.09369 10.4373 0.550703 21.0624 5.63669 28.9249L6.06052 29.5624L4.36519 35.9375L10.7227 34.2375L11.3584 34.6625C14.1133 36.15 17.0802 37 20.047 37C23.2257 37 26.4045 36.15 29.1594 34.45C37.0003 29.3499 39.3313 18.9374 34.4573 10.8623ZM30.007 27.2249C29.1594 28.4999 28.0998 29.3499 26.6164 29.5624C25.7687 29.5624 24.7091 29.9874 20.4708 28.2874C16.8682 26.5874 13.9014 23.8249 11.7823 20.6374C10.5108 19.1499 9.87501 17.2373 9.66309 15.3248C9.66309 13.6248 10.2988 12.1373 11.3584 11.0748C11.7823 10.6498 12.2061 10.4373 12.6299 10.4373H13.6895C14.1133 10.4373 14.5372 10.4373 14.7491 11.2873C15.1729 12.3498 16.2325 14.8998 16.2325 15.1123C16.4444 15.3248 16.4444 15.7498 16.2325 15.9623C16.4444 16.3873 16.2325 16.8123 16.0206 17.0248C15.8087 17.2374 15.5967 17.6624 15.3848 17.8749C14.961 18.0874 14.7491 18.5124 14.961 18.9374C15.8087 20.2124 16.8682 21.4874 17.9278 22.5499C19.1993 23.6124 20.4708 24.4624 21.9542 25.0999C22.3781 25.3124 22.8019 25.3124 23.0138 24.8874C23.2257 24.4624 24.2853 23.3999 24.7091 22.9749C25.133 22.5499 25.3449 22.5499 25.7687 22.7624L29.1594 24.4624C29.5832 24.6749 30.007 24.8874 30.2189 25.0999C30.4309 25.7374 30.4309 26.5874 30.007 27.2249Z" fill="#97EBE5"/>
</svg>
