<svg width="99" height="88" viewBox="0 0 99 88" fill="none" xmlns="http://www.w3.org/2000/svg">
<path fill-rule="evenodd" clip-rule="evenodd" d="M86.2879 74.281C88.2494 61.3686 89.7493 46.6279 91.8262 37.0293C92.4031 34.0583 92.4031 34.2869 93.0954 33.9441L97.5953 30.8588C97.9415 30.6303 97.9415 30.1732 97.9415 29.8304C98.0568 28.6877 96.6723 27.8878 95.8646 27.4308L55.9424 3.66284C53.9809 2.52015 52.2501 1.14893 50.0579 1.14893C47.981 1.14893 45.4426 2.63442 43.4811 3.89138L3.32815 27.545C2.63585 28.0021 1.25127 28.6877 1.36665 29.8304C1.36665 30.1732 1.48203 30.6303 1.82818 30.8588L6.2127 34.0583C6.44346 34.1726 6.67423 34.1726 6.67423 34.6297C9.09725 45.7138 10.4818 60.5687 12.7895 74.281H30.3276L29.7506 56.5693L36.3274 55.5409L37.0197 74.281H86.2879Z" fill="white"/>
<path fill-rule="evenodd" clip-rule="evenodd" d="M29.7505 56.5693L33.3273 58.0548L33.7889 76.1093L30.3274 74.281L29.7505 56.5693Z" fill="white"/>
<path fill-rule="evenodd" clip-rule="evenodd" d="M29.7508 56.4551L33.3276 57.9406C33.443 57.9406 33.443 58.0548 33.443 58.1691C33.443 58.1691 33.443 58.1691 33.3276 58.1691L33.2122 58.2834C33.2122 58.2834 33.0969 58.3976 33.0969 58.2834L30.0969 57.0264L30.6738 74.1667L33.7892 75.6522C33.7892 75.6522 33.7892 75.6522 33.7892 75.7665L34.0199 75.995C34.0199 76.1093 34.0199 76.2236 33.9045 76.2236H33.7892L30.2123 74.5096C30.2123 74.3953 30.2123 74.3953 30.2123 74.281L29.52 56.5693C29.52 56.4551 29.6354 56.4551 29.7508 56.4551Z" fill="#003333"/>
<path fill-rule="evenodd" clip-rule="evenodd" d="M32.5196 67.4248C32.7504 67.4248 32.8658 67.7676 32.8658 68.1104L32.9812 67.9961L33.2119 68.3389L32.9812 68.5675L32.8658 68.4532C32.8658 68.796 32.635 69.0246 32.5196 69.0246C32.2889 69.0246 32.0581 68.6818 32.0581 68.2247C32.0581 67.7676 32.2889 67.4248 32.5196 67.4248Z" fill="#003333"/>
<path fill-rule="evenodd" clip-rule="evenodd" d="M29.7507 42.1715C29.2892 42.1715 28.9431 41.943 28.7123 41.4859L27.4431 19.432C27.4431 18.8607 27.4431 18.4036 27.097 18.1751C26.2893 17.718 24.7893 18.975 23.8663 19.432L15.7895 23.8885C15.4434 24.1171 15.0972 24.3456 14.7511 24.4599C13.1357 25.4883 13.2511 26.2882 13.4819 27.7737C13.4819 28.345 13.4819 28.8021 13.5973 29.3734C13.7126 29.9448 13.7126 30.4019 13.7126 30.8589L15.4434 47.885C15.5588 49.0277 15.6741 50.0561 15.7895 51.0845L16.7126 60.3403C16.828 61.3687 16.9433 62.3971 16.9433 63.5398C17.1741 65.4824 17.5202 67.6535 17.6356 69.7103C17.6356 70.7387 17.8664 71.7672 17.9818 72.7956C17.9818 73.4812 17.9818 73.5955 18.4433 74.0525C18.7894 74.2811 19.1356 74.3953 19.7125 74.3953H30.3277L29.7507 56.5694L36.3275 55.541L36.9044 74.3953H47.5196C48.558 74.3953 49.1349 73.4812 49.1349 72.4528V7.31955C49.1349 6.97675 49.0195 6.63394 48.9042 6.51967C48.4426 5.71979 47.5196 6.17687 46.9427 6.51967C46.5965 6.74821 46.2504 6.97675 45.7888 7.20529C45.3273 7.43382 44.9812 7.54809 44.635 7.77663C42.0966 9.26212 38.9813 10.9762 36.5583 12.3474C34.8276 13.3758 34.8276 14.5185 34.9429 16.2325L35.7506 38.972C35.6352 40.8003 33.2122 41.1431 31.2507 41.8287C30.9046 41.8287 30.0969 42.1715 29.7507 42.1715Z" fill="#003333"/>
<path fill-rule="evenodd" clip-rule="evenodd" d="M51.4425 7.09109L51.3271 72.4529C51.3271 73.367 51.6733 74.3954 53.0579 74.3954H62.8654L64.0192 58.2835C64.1346 57.2551 64.0192 56.1124 64.8269 56.1124C65.7499 56.1124 65.8653 57.3694 66.0961 58.2835L71.1729 74.3954H83.1726C84.3264 73.9384 83.4034 72.5671 83.1726 71.9958L75.5574 50.0562C74.8651 48.9135 75.3266 48.3421 76.0189 47.3137L88.3648 27.6595C88.4802 27.5452 88.5956 27.5452 88.5956 27.3167C88.5956 27.0881 88.3648 26.7453 88.2494 26.5168L87.9033 26.174L79.8265 20.3463C79.0188 19.8892 78.6727 19.7749 77.7496 19.7749C76.942 19.7749 76.4804 20.6891 75.7881 21.489L67.0191 36.801C66.5576 37.3723 65.7499 38.7436 65.2884 38.7436C64.2499 38.7436 64.5961 37.0295 64.5961 36.801L65.5191 15.6613C65.6345 14.4043 65.7499 14.1758 65.2884 13.2616C65.0576 12.8045 64.7115 12.3475 64.1346 12.0047L53.7502 6.29121C52.9425 5.83414 51.4425 5.6056 51.4425 7.09109Z" fill="#003333"/>
<path fill-rule="evenodd" clip-rule="evenodd" d="M14.52 85.9364H84.7877C85.1338 83.5367 85.48 80.5657 86.0569 77.3662H13.02C13.5969 80.4515 14.0585 83.4225 14.52 85.9364Z" fill="white"/>
<path fill-rule="evenodd" clip-rule="evenodd" d="M38.7501 82.8509L37.5962 81.0226V83.5365V83.6508H37.4809H37.3655H36.904H36.7886V83.5365V79.6514V79.5371H36.904H37.0193H37.1347C37.1347 79.5371 37.1347 79.5371 37.2501 79.5371C37.2501 79.5371 37.2501 79.5371 37.3655 79.5371C37.3655 79.5371 37.3655 79.5371 37.4809 79.6514C37.4809 79.6514 37.4809 79.6514 37.5962 79.7656C37.5962 79.7656 37.5962 79.7656 37.5962 79.8799H37.7116V79.9942C37.7116 79.9942 37.7116 79.9942 37.7116 80.1085C37.827 80.1085 37.827 80.1085 37.827 80.1085V80.2227C37.827 80.2227 37.9424 80.2227 37.9424 80.337C38.0578 80.4513 38.0578 80.4513 38.0578 80.4513C38.0578 80.4513 38.0578 80.4513 38.0578 80.5655H38.1732C38.1732 80.6798 38.2885 80.9083 38.4039 81.0226V81.1369C38.5193 81.2511 38.6347 81.3654 38.7501 81.594C38.7501 81.594 38.8654 81.7082 38.8654 81.8225C38.9808 81.8225 38.9808 81.7082 38.9808 81.7082C39.0962 81.594 39.0962 81.4797 39.2116 81.3654C39.327 81.2511 39.327 81.2511 39.4424 81.1369C39.4424 81.0226 39.5577 80.9083 39.5577 80.7941C39.6731 80.5655 39.7885 80.4513 39.9039 80.337C40.0193 80.2227 40.0193 79.9942 40.1347 79.9942C40.25 79.8799 40.25 79.7656 40.3654 79.6514C40.4808 79.6514 40.4808 79.5371 40.4808 79.5371H40.5962H40.7116H40.9423H41.0577V79.6514V83.4223V83.5365V83.6508H40.9423H40.4808H40.25V83.5365V81.0226C40.25 81.0226 40.25 81.1369 40.1347 81.2511C40.0193 81.3654 40.0193 81.4797 39.9039 81.594C39.7885 81.7082 39.7885 81.8225 39.6731 81.9368C39.5577 82.1653 39.4424 82.3938 39.327 82.5081C39.2116 82.6224 39.2116 82.7367 39.0962 82.7367C39.0962 82.8509 39.0962 82.8509 38.9808 82.8509V82.9652H38.8654V82.8509H38.7501Z" fill="#003333"/>
<path fill-rule="evenodd" clip-rule="evenodd" d="M29.4042 82.9652C29.5196 82.9652 29.6349 82.9652 29.7503 82.9652C29.8657 82.8509 29.9811 82.8509 30.0965 82.7366C30.2118 82.7366 30.3272 82.6224 30.4426 82.5081C30.4426 82.3938 30.558 82.2796 30.558 82.1653C30.6734 82.051 30.6734 81.8225 30.6734 81.7082C30.6734 81.594 30.6734 81.4797 30.6734 81.3654C30.6734 81.2511 30.6734 81.1369 30.558 81.0226C30.558 80.9083 30.4426 80.7941 30.3272 80.6798C30.3272 80.6798 30.2118 80.6798 30.2118 80.5655H30.0965C30.0965 80.4513 29.9811 80.4513 29.9811 80.4513C29.8657 80.4513 29.8657 80.4513 29.8657 80.4513C29.7503 80.337 29.7503 80.337 29.6349 80.337H29.5196H29.4042C29.2888 80.337 29.2888 80.337 29.1734 80.337C29.058 80.337 28.9426 80.337 28.8273 80.337C28.7119 80.4513 28.5965 80.4513 28.4811 80.5655C28.3657 80.5655 28.2504 80.6798 28.2504 80.7941C28.135 80.9083 28.135 81.0226 28.0196 81.1369C28.0196 81.2511 27.9042 81.3654 27.9042 81.594C27.9042 81.7082 27.9042 81.8225 27.9042 81.9368C28.0196 82.051 28.0196 82.1653 28.135 82.2796C28.135 82.3938 28.2504 82.5081 28.3657 82.6224C28.3657 82.6224 28.3657 82.6224 28.4811 82.7366C28.4811 82.7366 28.4811 82.7366 28.5965 82.7366C28.5965 82.8509 28.5965 82.8509 28.7119 82.8509C28.7119 82.8509 28.7119 82.8509 28.8273 82.9652H28.9426C29.058 82.9652 29.058 82.9652 29.058 82.9652C29.1734 82.9652 29.1734 82.9652 29.2888 82.9652H29.4042ZM30.6734 79.9942C30.7888 80.1085 30.9041 80.2227 31.1349 80.4513C31.2503 80.5655 31.2503 80.6798 31.3657 80.9083C31.3657 81.1369 31.481 81.2511 31.481 81.4797C31.481 81.7082 31.481 81.9368 31.3657 82.1653C31.3657 82.3938 31.2503 82.6224 31.1349 82.7366C31.0195 82.9652 30.9041 83.0795 30.7888 83.1937C30.6734 83.308 30.4426 83.4223 30.3272 83.5365C30.0965 83.6508 29.8657 83.6508 29.7503 83.7651C29.6349 83.7651 29.5196 83.7651 29.5196 83.7651C29.4042 83.7651 29.2888 83.7651 29.2888 83.7651C29.1734 83.7651 29.058 83.7651 29.058 83.7651C28.9426 83.7651 28.8273 83.7651 28.8273 83.6508C28.7119 83.6508 28.5965 83.6508 28.5965 83.6508C28.4811 83.6508 28.4811 83.5365 28.3657 83.5365C28.2504 83.5365 28.2504 83.4223 28.135 83.4223L28.0196 83.308C27.7888 83.1937 27.6734 83.0795 27.5581 82.8509C27.4427 82.7366 27.3273 82.5081 27.2119 82.3938C27.2119 82.1653 27.2119 81.9368 27.2119 81.7082C27.2119 81.4797 27.2119 81.3654 27.2119 81.1369C27.3273 80.9083 27.3273 80.6798 27.4427 80.5655C27.5581 80.337 27.6734 80.2227 27.9042 80.1085C28.0196 79.8799 28.135 79.7656 28.3657 79.7656C28.4811 79.6514 28.7119 79.6514 28.9426 79.5371C29.058 79.5371 29.058 79.5371 29.1734 79.5371C29.2888 79.5371 29.2888 79.5371 29.4042 79.5371C29.4042 79.5371 29.5196 79.5371 29.6349 79.5371C29.6349 79.5371 29.7503 79.6514 29.8657 79.6514C29.8657 79.6514 29.9811 79.6514 30.0965 79.6514L30.2118 79.7656C30.3272 79.7656 30.4426 79.8799 30.4426 79.8799C30.558 79.8799 30.558 79.9942 30.6734 79.9942Z" fill="#003333"/>
<path fill-rule="evenodd" clip-rule="evenodd" d="M47.5191 80.337V81.0226H48.9037H49.0191V81.1369V81.4797V81.594V81.8225H48.9037H47.5191V82.9652H50.0575H50.1729V83.0795V83.5365V83.6508H50.0575H49.9421C49.8267 83.6508 49.7114 83.6508 49.596 83.6508C49.4806 83.6508 49.3652 83.6508 49.2498 83.6508C49.1344 83.6508 49.0191 83.6508 48.9037 83.6508C48.6729 83.6508 48.5575 83.6508 48.3268 83.6508C48.2114 83.6508 47.9806 83.6508 47.8652 83.6508C47.6345 83.6508 47.5191 83.6508 47.4037 83.6508C47.173 83.6508 47.0576 83.6508 46.8268 83.6508H46.7114V83.5365V79.6514V79.5371H46.8268H49.9421H50.0575V79.6514V79.7656V80.1085V80.2227H49.9421C49.596 80.337 49.3652 80.337 49.0191 80.337C48.6729 80.337 48.3268 80.337 48.096 80.337C47.8652 80.337 47.6345 80.337 47.5191 80.337Z" fill="#003333"/>
<path fill-rule="evenodd" clip-rule="evenodd" d="M21.0968 81.8225H19.1353V83.5365V83.6508H19.0199H18.5584H18.443H18.3276V83.5365V79.7656V79.6514V79.5371H18.443H19.0199H19.1353V79.6514V81.1369H21.0968V79.6514V79.5371H21.2122H21.7891H21.9045V79.6514V79.7656V83.5365V83.6508H21.7891H21.2122H21.0968V83.5365V81.8225Z" fill="#003333"/>
<path fill-rule="evenodd" clip-rule="evenodd" d="M59.865 81.0226C59.9803 81.1369 60.0957 81.3654 60.2111 81.594C60.3265 81.8225 60.5572 82.051 60.788 82.3938C60.9034 82.5081 60.9034 82.6224 61.0188 82.6224C61.1341 82.7367 61.1341 82.8509 61.2495 82.9652C61.2495 83.0795 61.3649 83.0795 61.3649 83.1937C61.4803 83.308 61.4803 83.4223 61.5957 83.4223V83.5365L61.7111 83.6508H61.4803H60.9034H60.788C60.6726 83.5365 60.5572 83.4223 60.5572 83.308C60.4419 83.1937 60.4419 83.0795 60.3265 82.9652C60.0957 82.7367 59.865 82.3938 59.7496 82.1653C59.5188 81.9368 59.4034 81.7082 59.288 81.594L59.1727 81.7082C59.0573 81.7082 59.0573 81.8225 58.9419 81.8225C58.9419 81.9368 58.9419 81.9368 58.9419 81.9368C58.8265 81.9368 58.8265 82.051 58.8265 82.051C58.7111 82.051 58.7111 82.051 58.5958 82.1653V83.5365V83.6508H58.4804H58.365H57.9035H57.7881V83.5365V83.4223V79.6514V79.5371H57.9035H58.365H58.4804H58.5958V79.6514V79.7656V81.2511C58.7111 81.1369 58.7111 81.1369 58.7111 81.1369C58.7111 81.1369 58.7111 81.1369 58.8265 81.0226L58.9419 80.9083C59.0573 80.7941 59.288 80.6798 59.4034 80.4513C59.6342 80.337 59.7496 80.2227 59.9803 79.9942C60.0957 79.8799 60.3265 79.7656 60.4419 79.6514C60.5572 79.6514 60.6726 79.5371 60.788 79.5371H60.9034H61.2495H61.4803L61.3649 79.7656H61.2495C61.2495 79.8799 61.1341 79.9942 61.1341 79.9942C61.0188 80.1085 60.9034 80.1085 60.9034 80.2227C60.788 80.2227 60.788 80.2227 60.6726 80.337L60.5572 80.4513C60.5572 80.5655 60.4419 80.5655 60.4419 80.6798C60.3265 80.6798 60.2111 80.7941 60.2111 80.7941C60.0957 80.7941 60.0957 80.9083 59.9803 80.9083C59.9803 81.0226 59.865 81.0226 59.865 81.0226Z" fill="#003333"/>
<path fill-rule="evenodd" clip-rule="evenodd" d="M80.8644 80.337H79.3644V83.5365V83.6508H79.2491H79.1337H78.6721H78.5568V83.5365V80.337H77.0568H76.9414V80.1085V79.8799V79.6514V79.5371H77.0568H77.2876H77.4029H80.6337H80.8644H80.9798V79.6514V79.7656V80.1085V80.2227V80.337H80.8644Z" fill="#003333"/>
<path fill-rule="evenodd" clip-rule="evenodd" d="M69.6726 83.6508H69.2111H69.0957V83.5365V83.4223V79.6514V79.5371H69.2111H69.6726H69.788V79.6514V79.7656V83.5365V83.6508H69.6726Z" fill="#003333"/>
</svg>
