<svg width="72" height="72" viewBox="0 0 72 72" fill="none" xmlns="http://www.w3.org/2000/svg">
<path fill-rule="evenodd" clip-rule="evenodd" d="M62.4119 58.4498C63.9047 49.0335 64.9382 38.2392 66.4884 31.2919C66.8329 29.1101 66.8903 29.2823 67.4071 28.9952L70.6224 26.756C70.852 26.5837 70.9095 26.2392 70.9095 26.0096C70.9669 25.1483 69.9908 24.6316 69.4166 24.2871L40.5363 6.94738C39.1583 6.08614 37.8377 5.05264 36.2875 5.05264C34.7946 5.05264 32.9573 6.14355 31.5219 7.06221L2.58411 24.2871C2.00995 24.6316 1.03387 25.1483 1.09129 26.067C1.09129 26.2967 1.14871 26.5837 1.37837 26.8134L4.59368 29.0526C4.76593 29.2249 4.88076 29.1675 4.9956 29.512C6.71808 37.6077 7.69416 48.4593 9.35923 58.4498H22.0482L21.5889 45.5311L26.4119 44.7847L26.8138 58.4498H62.4119ZM10.6224 66.9474H61.3784C61.608 65.1675 61.8951 63.0431 62.297 60.689H9.5889C9.93339 62.9856 10.3353 65.0526 10.6224 66.9474ZM21.5889 45.5311L24.1726 46.622L24.5745 59.7703L22.0482 58.4498L21.5889 45.5311Z" fill="#2FD6CB"/>
<path fill-rule="evenodd" clip-rule="evenodd" d="M28.1344 64.7081L27.2732 63.3876V65.2249V65.2823H27.1583H26.8138H26.7564H26.699V65.2249V62.4115V62.3541V62.2966H26.7564H26.8138H26.8712H26.9287C26.9861 62.2966 26.9861 62.2966 27.0435 62.2966C27.0435 62.2966 27.0435 62.2966 27.1009 62.2966C27.1009 62.2966 27.1583 62.2966 27.1583 62.3541H27.2157C27.2157 62.3541 27.2157 62.4115 27.2732 62.4115C27.2732 62.4689 27.2732 62.4689 27.3306 62.5263V62.5837H27.388C27.388 62.6411 27.388 62.6411 27.388 62.6411C27.4454 62.6986 27.4454 62.6986 27.4454 62.6986C27.4454 62.756 27.4454 62.756 27.5028 62.756C27.5028 62.8134 27.5028 62.8134 27.5028 62.8134C27.5602 62.8708 27.5602 62.8708 27.5602 62.8708C27.5602 62.9282 27.6177 62.9282 27.6177 62.9282C27.6177 62.9856 27.6177 62.9856 27.6177 62.9856L27.6751 63.1005C27.7325 63.1579 27.7899 63.2727 27.8473 63.3301L27.9047 63.3876V63.445C27.9621 63.5024 28.0196 63.6172 28.1344 63.7321C28.1344 63.7895 28.1918 63.9043 28.2492 63.9617C28.2492 63.9043 28.3066 63.9043 28.3066 63.8469C28.3641 63.7895 28.4215 63.7321 28.4789 63.6746C28.4789 63.5598 28.5363 63.5024 28.5937 63.445C28.6511 63.3876 28.7086 63.2727 28.766 63.1579C28.8234 63.0431 28.8808 62.9856 28.9382 62.8708C28.9956 62.756 29.0531 62.6411 29.1105 62.5837C29.1679 62.4689 29.2253 62.4115 29.2827 62.3541C29.3401 62.3541 29.3976 62.2966 29.3976 62.2966H29.5124H29.6846H29.7421H29.7995V62.4115V65.11V65.1675V65.2823H29.7421H29.6846H29.3401H29.2253V65.2249V63.3301C29.2253 63.3876 29.1679 63.445 29.1105 63.5024C29.0531 63.5598 28.9956 63.6746 28.9382 63.7321C28.8808 63.8469 28.8234 63.9617 28.766 64.0191C28.7086 64.1914 28.5937 64.3636 28.5363 64.4785C28.4789 64.5359 28.4215 64.5933 28.4215 64.5933C28.3641 64.6507 28.3641 64.7081 28.3066 64.7081V64.7655L28.2492 64.823L28.1918 64.7081H28.1344ZM50.4693 65.2823H50.1248H50.01V65.2249V65.11V62.4115V62.2966H50.1248H50.4693H50.5842V62.4115V62.4689V65.1675V65.2823H50.5267H50.4693ZM58.5076 62.8134H57.4167V65.2249V65.2823H57.3593H56.9574H56.8425V65.2249V65.1675V62.8134H55.809H55.6942V62.756V62.4689V62.4115V62.2966H55.809H55.9813H56.0387H58.4502H58.5076H58.6224V62.3541V62.4115V62.4689V62.756V62.8134H58.5076ZM43.4071 63.3876C43.4645 63.5024 43.522 63.6172 43.6368 63.7321C43.7516 63.9617 43.9239 64.134 44.0387 64.3636C44.0961 64.421 44.1535 64.4785 44.2109 64.5359C44.2684 64.6507 44.3258 64.7081 44.3832 64.7655C44.4406 64.823 44.4406 64.8804 44.498 64.9952C44.5554 65.0526 44.5554 65.11 44.6129 65.1675L44.6703 65.2823H44.5554H44.0961H44.0387V65.2249C43.9813 65.1675 43.9239 65.11 43.8665 65.0526C43.809 64.9952 43.7516 64.8804 43.6942 64.7655C43.5794 64.5933 43.4071 64.3636 43.2923 64.1914C43.1775 64.0191 43.0626 63.9043 42.9478 63.7895C42.9478 63.8469 42.8904 63.8469 42.8904 63.8469C42.833 63.9043 42.7755 63.9043 42.7181 63.9617C42.7181 64.0191 42.7181 64.0191 42.6607 64.0191C42.6607 64.0766 42.6033 64.0766 42.6033 64.0766C42.5459 64.134 42.5459 64.134 42.4885 64.1914H42.431V65.1675V65.2823H42.3736H42.3162H41.9717H41.8569V65.2249V65.11V62.4115V62.2966H41.9717H42.3162H42.431V62.4115V62.4689V63.5598C42.431 63.5598 42.431 63.5598 42.4885 63.5024C42.5459 63.445 42.5459 63.445 42.5459 63.445C42.5459 63.445 42.6033 63.445 42.6033 63.3876C42.6033 63.3876 42.6607 63.3876 42.6607 63.3301L42.7181 63.2727C42.833 63.1579 42.9478 63.1005 43.0626 62.9856C43.1775 62.8708 43.3497 62.756 43.4645 62.6411C43.5794 62.5263 43.6942 62.4689 43.809 62.4115C43.9239 62.3541 43.9813 62.2966 44.0387 62.2966H44.1535H44.3258H44.3832H44.5554L44.4406 62.4689C44.3832 62.5263 44.3258 62.5837 44.2684 62.6411C44.2109 62.6986 44.1535 62.6986 44.0961 62.756C44.0961 62.756 44.0387 62.8134 43.9813 62.8134C43.9813 62.8708 43.9813 62.8708 43.9239 62.8708C43.9239 62.9282 43.9239 62.9282 43.8665 62.9282C43.8665 62.9856 43.809 63.0431 43.7516 63.1005C43.6942 63.1005 43.6942 63.1579 43.6368 63.2153C43.5794 63.2153 43.522 63.2727 43.4645 63.3301C43.4645 63.3301 43.4071 63.3301 43.4071 63.3876ZM15.388 63.9617H13.9526V65.1675V65.2823H13.8952H13.8377H13.4933H13.3784V65.2249V62.4689V62.4115V62.2966H13.4933H13.8377H13.9526V62.4115V63.445H15.388V62.4115V62.3541V62.2966H15.4454H15.5028H15.8473H15.9621V62.3541V62.4115V62.4689V65.2249V65.2823H15.8473H15.5028H15.4454H15.388V65.2249V63.9617ZM34.4502 62.8134V63.3876H35.4837H35.5411V63.5024V63.7321V63.7895V63.8469V63.9043H35.4837H34.4502V64.7655H36.2875H36.4023V64.8804V65.1675V65.2823H36.3449C36.2875 65.2823 36.2301 65.2823 36.1727 65.2823C36.1153 65.2823 36.0578 65.2823 36.0004 65.2823C35.8856 65.2823 35.8282 65.2823 35.7133 65.2823C35.6559 65.3397 35.5411 65.3397 35.4263 65.3397C35.3114 65.3397 35.1966 65.3397 35.0818 65.3397C34.9669 65.3397 34.8521 65.3397 34.6799 65.3397C34.565 65.2823 34.4502 65.2823 34.3354 65.2823C34.2205 65.2823 34.1057 65.2823 33.9909 65.2823H33.876V65.2249V62.4115V62.2966H33.9909H36.1727H36.2875V62.4115V62.6986V62.8134H36.2301H36.1727C36.0004 62.8134 35.7708 62.8708 35.5411 62.8708C35.3114 62.8708 35.0818 62.8708 34.8521 62.8708V62.8134C34.6799 62.8134 34.565 62.8134 34.4502 62.8134ZM21.3593 64.823C21.4741 64.823 21.5315 64.823 21.6464 64.7655C21.7612 64.7655 21.8186 64.7081 21.876 64.6507C21.9909 64.5933 22.0483 64.5359 22.1057 64.421C22.1631 64.3636 22.2205 64.3062 22.2205 64.1914C22.2779 64.0766 22.2779 63.9617 22.3354 63.9043C22.3354 63.7895 22.3354 63.6746 22.2779 63.6172C22.2779 63.5024 22.2779 63.445 22.2205 63.3301C22.1631 63.2727 22.1057 63.2153 22.0483 63.1579C21.9909 63.1005 21.9909 63.1005 21.9909 63.0431C21.9334 63.0431 21.9334 63.0431 21.876 62.9856C21.8186 62.9856 21.8186 62.9856 21.7612 62.9282C21.7612 62.9282 21.7038 62.9282 21.6464 62.9282C21.6464 62.8708 21.5889 62.8708 21.5889 62.8708C21.5315 62.8708 21.4741 62.8708 21.4741 62.8708C21.4167 62.8708 21.3593 62.8134 21.3593 62.8134C21.3019 62.8134 21.2444 62.8134 21.2444 62.8134C21.1296 62.8134 21.0148 62.8708 20.9574 62.8708C20.8425 62.9282 20.7851 62.9282 20.7277 62.9856C20.6129 63.0431 20.5555 63.1005 20.498 63.2153C20.4406 63.2727 20.4406 63.3301 20.3832 63.445C20.3258 63.5598 20.3258 63.6746 20.3258 63.7321C20.2684 63.8469 20.3258 63.9617 20.3258 64.0191C20.3258 64.134 20.3832 64.2488 20.3832 64.3062C20.4406 64.3636 20.498 64.4785 20.5555 64.5359C20.6129 64.5359 20.6129 64.5933 20.6703 64.5933L20.7277 64.6507C20.7851 64.6507 20.7851 64.7081 20.8425 64.7081C20.8999 64.7081 20.8999 64.7655 20.9574 64.7655C20.9574 64.7655 21.0148 64.7655 21.0722 64.7655L21.1296 64.823C21.187 64.823 21.2444 64.823 21.2444 64.823C21.3019 64.823 21.3593 64.823 21.3593 64.823ZM22.2779 62.5837C22.3928 62.6986 22.5076 62.8134 22.565 62.9282C22.6799 63.0431 22.7373 63.1579 22.7947 63.2727C22.7947 63.445 22.8521 63.5598 22.8521 63.7321C22.8521 63.8469 22.8521 64.0191 22.7947 64.1914C22.7373 64.3636 22.7373 64.4785 22.6224 64.5933C22.565 64.7655 22.4502 64.8804 22.3928 64.9378C22.2779 65.0526 22.1631 65.1675 21.9909 65.2249C21.876 65.2823 21.7038 65.3397 21.5889 65.3397C21.5315 65.3397 21.4741 65.3397 21.4167 65.3397C21.3593 65.3397 21.3019 65.3397 21.2444 65.3397C21.187 65.3397 21.1296 65.3397 21.0722 65.3397C21.0148 65.3397 20.9574 65.3397 20.9574 65.3397C20.8999 65.2823 20.8425 65.2823 20.7851 65.2823C20.7277 65.2249 20.6703 65.2249 20.6129 65.2249C20.5555 65.1675 20.498 65.1675 20.498 65.11C20.4406 65.11 20.3832 65.0526 20.3258 65.0526C20.211 64.9378 20.0961 64.823 20.0387 64.7081C19.9239 64.5933 19.8665 64.4785 19.809 64.3062C19.7516 64.1914 19.7516 64.0191 19.7516 63.9043C19.7516 63.7321 19.7516 63.5598 19.809 63.3876C19.8665 63.2727 19.9239 63.1005 19.9813 62.9856C20.0387 62.8708 20.1535 62.756 20.2684 62.6411C20.3832 62.5837 20.498 62.4689 20.6129 62.4115C20.7277 62.3541 20.8999 62.3541 21.0148 62.2966C21.0722 62.2966 21.1296 62.2966 21.187 62.2966C21.2444 62.2966 21.3019 62.2966 21.3593 62.2966C21.4167 62.2966 21.4741 62.2966 21.5315 62.2966C21.5889 62.2966 21.6464 62.3541 21.7038 62.3541C21.7612 62.3541 21.7612 62.3541 21.8186 62.4115C21.876 62.4115 21.9334 62.4115 21.9909 62.4689C22.0483 62.4689 22.1057 62.4689 22.1057 62.5263C22.1631 62.5263 22.2205 62.5837 22.2779 62.5837Z" fill="#003333"/>
<path fill-rule="evenodd" clip-rule="evenodd" d="M23.5981 53.4545C23.7704 53.4545 23.8852 53.6842 23.8852 53.9713L23.9426 53.8565L24.1723 54.0861L23.9426 54.2584L23.8852 54.201C23.8278 54.4306 23.7129 54.6029 23.5981 54.6029C23.4259 54.6029 23.311 54.3732 23.311 54.0287C23.311 53.7416 23.4259 53.4545 23.5981 53.4545Z" fill="#003333"/>
<path fill-rule="evenodd" clip-rule="evenodd" d="M21.6465 35.0239C21.302 35.0239 21.015 34.9091 20.9001 34.5646L19.9815 18.4306C19.9815 17.9713 19.9815 17.7416 19.6944 17.5694C19.1202 17.2249 18.0293 18.0861 17.3403 18.4306L11.4839 21.7034C11.2542 21.8182 10.9671 21.9904 10.7375 22.1053C9.64654 22.8517 9.70396 23.4259 9.81879 24.5168C9.87621 24.9187 9.93362 25.2632 9.93362 25.6651C9.99104 26.067 9.99104 26.4115 10.0485 26.8134L11.3116 39.2153C11.369 40.0192 11.4264 40.7656 11.5413 41.512L12.1729 48.2871C12.2303 49.0335 12.3451 49.7799 12.4025 50.5837C12.5174 52.0766 12.747 53.6268 12.8619 55.1196C12.9193 55.866 13.0341 56.6125 13.0915 57.3589C13.0915 57.8756 13.1489 57.9904 13.436 58.2775C13.6657 58.4498 13.9528 58.5646 14.4121 58.5646H21.9336C21.991 58.5646 21.991 58.5646 21.991 58.5646L24.5174 59.8852C24.5748 59.8852 24.6322 59.8852 24.6322 59.8852C24.6896 59.8278 24.6896 59.7703 24.6896 59.7129L24.5748 59.4833C24.5174 59.4833 24.5174 59.4833 24.5174 59.4833L22.2781 58.3349L21.8188 45.8756L24.0006 46.7943C24.058 46.7943 24.058 46.7943 24.1154 46.7943L24.2303 46.7369C24.2877 46.6794 24.2877 46.6794 24.2877 46.6794C24.2877 46.622 24.2877 46.5072 24.2303 46.5072L21.8188 45.4737L26.4121 44.7847L26.814 58.5646H34.4504C35.1968 58.5646 35.5987 57.8756 35.5987 57.1292V9.58854C35.5987 9.35887 35.5413 9.12921 35.4839 8.95696C35.0819 8.3828 34.4504 8.78471 34.0485 9.01437C33.7614 9.18662 33.5317 9.30146 33.1872 9.4737C32.9001 9.64595 32.6705 9.8182 32.3834 9.99045C30.5461 10.9665 28.2494 12.2297 26.5269 13.2632C25.3212 13.9522 25.3212 14.8134 25.3786 16.0766L25.9528 32.7273C25.8379 34.0479 24.1729 34.2201 22.68 34.7369C22.4504 34.7943 21.8762 35.0239 21.6465 35.0239ZM37.2638 9.41629L37.2063 57.1292C37.2063 57.8182 37.4934 58.5072 38.4695 58.5072H45.5317L46.393 46.7943C46.5078 46.0479 46.3355 45.1866 46.9671 45.1866C47.5987 45.1866 47.7135 46.0479 47.8858 46.7369L51.503 58.5646L60.2303 58.5072C61.0341 58.1627 60.3451 57.1866 60.1729 56.7847L54.7183 40.7656C54.2016 39.9043 54.5461 39.5024 55.0628 38.8134L64.0197 24.4593C64.0197 24.4019 64.1346 24.3445 64.1346 24.1723C64.1346 24 64.0197 23.7704 63.8475 23.5981L63.6178 23.3684L57.7614 19.0622C57.2446 18.7177 56.9575 18.6603 56.2685 18.6603C55.6944 18.6603 55.4073 19.3493 54.948 19.9235L48.5174 31.0622C48.2303 31.5215 47.6561 32.4976 47.3116 32.4976C46.5078 32.4976 46.7949 31.2919 46.7949 31.1196L47.4839 15.6747C47.5413 14.756 47.6561 14.6412 47.2542 13.8948C47.1394 13.6077 46.9097 13.2632 46.4504 12.9761L38.9863 8.78471C38.3547 8.49763 37.2638 8.3828 37.2638 9.41629Z" fill="#003333"/>
</svg>
