<?xml version="1.0" encoding="UTF-8"?>
<!DOCTYPE svg PUBLIC "-//W3C//DTD SVG 1.1//EN" "http://www.w3.org/Graphics/SVG/1.1/DTD/svg11.dtd">
<!-- Creator: CorelDRAW X7 -->
<svg xmlns="http://www.w3.org/2000/svg" xml:space="preserve" width="1500px" height="1500px" version="1.1" style="shape-rendering:geometricPrecision; text-rendering:geometricPrecision; image-rendering:optimizeQuality; fill-rule:evenodd; clip-rule:evenodd"
viewBox="0 0 1500 1500"
 xmlns:xlink="http://www.w3.org/1999/xlink">
 <defs>
  <style type="text/css">
   <![CDATA[
    .fil0 {fill:none}
    .fil2 {fill:#003333}
    .fil1 {fill:#2FD6CB}
   ]]>
  </style>
 </defs>
 <g id="Capa_x0020_1">
  <metadata id="CorelCorpID_0Corel-Layer"/>
  <polygon class="fil0" points="0,1500 1500,1500 1500,0 0,0 "/>
  <path class="fil1" d="M1210 1141c26,-164 44,-352 71,-473 6,-38 7,-35 16,-40l56 -39c4,-3 5,-9 5,-13 1,-15 -16,-24 -26,-30l-503 -302c-24,-15 -47,-33 -74,-33 -26,0 -58,19 -83,35l-504 300c-10,6 -27,15 -26,31 0,4 1,9 5,13l56 39c3,3 5,2 7,8 30,141 47,330 76,504l221 0 -8 -225 84 -13 7 238 620 0zm-902 148l884 0c4,-31 9,-68 16,-109l-918 0c6,40 13,76 18,109zm191 -373l45 19 7 229 -44 -23 -8 -225z"/>
  <path class="fil2" d="M613 1250l-15 -23 0 32 0 0 0 0 0 1 -2 0 0 0 0 0 -6 0 0 0 -1 0 -1 0 0 -1 0 0 0 0 0 -49 0 -1 0 0 0 -1 1 0 1 0 0 0 0 0 0 0 1 0 0 0 1 0c1,0 1,0 2,0 0,0 0,0 1,0 0,0 1,0 1,1l0 0c0,0 1,0 1,0 0,0 0,1 1,1 0,1 0,1 1,2l0 0 0 0 0 0 0 0 0 0 0 0 0 1 0 0 0 0 0 0 1 0 0 0c0,1 0,1 0,1 1,1 1,1 1,1 0,1 0,1 1,1 0,1 0,1 0,1 1,1 1,1 1,1 0,1 1,1 1,1 0,1 0,1 0,1l1 2c1,1 2,3 3,4l1 1 0 0 0 0 0 1c1,1 2,3 4,5 0,1 1,3 2,4 0,-1 1,-1 1,-2 1,-1 2,-2 3,-3 0,-2 1,-3 2,-4 1,-1 2,-3 3,-5 1,-2 2,-3 3,-5 1,-2 2,-4 3,-5 1,-2 2,-3 3,-4 1,0 2,-1 2,-1l0 0 2 0 0 0 0 0 3 0 1 0 0 0 0 0 1 0 0 2 0 0 0 0 0 47 0 0 0 1 0 0 0 0 0 2 -1 0 -1 0 0 0 0 0 0 0 0 0 -6 0 0 0 0 0 -2 0 0 -1 0 0 0 0 0 -33c0,1 -1,2 -2,3 -1,1 -2,3 -3,4 -1,2 -2,4 -3,5l0 0 0 0c-1,3 -3,6 -4,8 -1,1 -2,2 -2,2 -1,1 -1,2 -2,2l0 1 0 0 -1 1 -1 -2 0 0 -1 0zm389 10l-6 0 0 0 0 0 -2 0 0 -1 0 0 0 0 0 -2 0 0 0 -47 0 0 0 0 0 -2 2 0 0 0 0 0 6 0 0 0 0 0 2 0 0 2 0 0 0 0 0 1 0 0 0 47 0 0 0 0 0 0 0 2 -1 0 -1 0 0 0 0 0 0 0 0 0zm140 -43l-19 0 0 42 0 0 0 0 0 1 -1 0 0 0 0 0 -7 0 0 0 0 0 0 0 0 0 0 0 -2 0 0 -1 0 -1 0 0 0 -41 -18 0 0 0 0 0 0 0 0 0 0 0 -2 0 0 -1 0 0 0 0 0 -5 0 0 0 -1 0 0 0 0 0 -2 2 0 0 0 0 0 3 0 1 0 0 0 0 0 0 0 42 0 0 0 1 0 0 0 0 0 2 0 0 1 0 0 0 1 0 1 0 0 0 5 0 0 0 0 0 1 -2 0 0 0 0 0zm-263 10c1,2 2,4 4,6 2,4 5,7 7,11l0 0 0 0 0 0 0 0c1,1 2,2 3,3 1,2 2,3 3,4 1,1 1,2 2,4 1,1 1,2 2,3l0 0 0 0 1 2 -2 0 0 0 0 0 -8 0 0 0 0 0 -1 0 0 -1 0 0 0 0 0 0 0 0c-1,-1 -2,-2 -3,-3 -1,-1 -2,-3 -3,-5 -2,-3 -5,-7 -7,-10 -2,-3 -4,-5 -6,-7 0,0 0,0 0,0 0,1 -1,1 -1,1 -1,1 -2,1 -3,2l0 0 0 0 0 0c0,1 0,1 -1,1 0,1 -1,1 -1,1 -1,1 -1,1 -2,2l0 0c0,0 -1,0 -1,0l0 17 0 0 0 0 0 0 0 0 0 0 0 2 -1 0 -1 0 0 0 0 0 -6 0 0 0 0 0 0 0 -2 0 0 -1 0 0 0 0 0 -2 0 0 0 -47 0 0 0 0 0 -2 2 0 0 0 0 0 6 0 0 0 0 0 2 0 0 2 0 0 0 0 0 1 0 0 0 19c0,0 0,0 0,0l0 0 0 0 0 0c0,0 0,0 1,-1l0 0c0,0 0,0 0,0 1,-1 1,-1 1,-1 0,0 1,0 1,-1 0,0 1,0 1,-1l1 -1c2,-2 4,-3 6,-5 2,-2 5,-4 7,-6 2,-2 4,-3 6,-4 2,-1 3,-2 4,-2l0 0 2 0 0 0 0 0 0 0 0 0 3 0 1 0 0 0 3 0 -2 3 0 0 0 0c-1,1 -2,2 -3,3 -1,1 -2,1 -3,2l0 0 0 0 0 0c0,0 -1,1 -2,1 0,1 0,1 -1,1 0,1 0,1 -1,1 0,1 -1,2 -2,3 -1,0 -1,1 -2,2 -1,0 -2,1 -3,2 0,0 -1,0 -1,1zm-488 10l-25 0 0 21 0 0 0 0 0 2 -1 0 -1 0 0 0 -6 0 0 0 0 0 -2 0 0 -1 0 0 0 0 0 -48 0 0 0 -1 0 0 0 0 0 -2 2 0 0 0 0 0 6 0 0 0 0 0 2 0 0 2 0 0 0 0 0 18 25 0 0 -18 0 0 0 0 0 0 0 -1 0 0 0 -1 1 0 1 0 0 0 6 0 0 0 0 0 2 0 0 1 0 0 0 1 0 1 0 0 0 48 0 0 0 0 0 1 -2 0 0 0 0 0 -6 0 0 0 -1 0 -1 0 0 -1 0 0 0 0 0 -22zm332 -20l0 10 18 0 0 0 0 0 1 0 0 2 0 0 0 0 0 4 0 0 0 1 0 1 0 0 0 1 -1 0 0 0 0 0 0 0 -18 0 0 15 32 0 0 0 0 0 2 0 0 2 0 0 0 0 0 5 0 0 0 0 0 0 0 0 0 0 0 2 -1 0 0 0 0 0 0 0c-1,0 -2,0 -3,0l0 0c-1,0 -2,0 -3,0 -2,0 -3,0 -5,0 -1,1 -3,1 -5,1 -2,0 -4,0 -6,0 -2,0 -4,0 -7,0 -2,-1 -4,-1 -6,-1 -2,0 -4,0 -6,0l0 0 0 0 -2 0 0 -1 0 0 0 0 0 -49 0 0 0 -2 2 0 0 0 38 0 0 0 0 0 2 0 0 2 0 0 0 0 0 0 0 5 0 0 0 0 0 0 0 0 0 0 0 2 -1 0 0 0 0 0 -1 0 0 0c-3,0 -7,1 -11,1 -4,0 -8,0 -12,0l0 0 0 0 0 -1c-3,0 -5,0 -7,0zm-228 35c2,0 3,0 5,-1l0 0c2,0 3,-1 4,-2 2,-1 3,-2 4,-4 1,-1 2,-2 2,-4 1,-2 1,-4 2,-5 0,-2 0,-4 -1,-5 0,-2 0,-3 -1,-5 -1,-1 -2,-2 -3,-3 -1,-1 -1,-1 -1,-2 -1,0 -1,0 -2,-1 -1,0 -1,0 -2,-1 0,0 -1,0 -2,0 0,-1 -1,-1 -1,-1 -1,0 -2,0 -2,0 -1,0 -2,-1 -2,-1 -1,0 -2,0 -2,0 -2,0 -4,1 -5,1 -2,1 -3,1 -4,2 -2,1 -3,2 -4,4 -1,1 -1,2 -2,4 -1,2 -1,4 -1,5l0 0c-1,2 0,4 0,5 0,2 1,4 1,5 1,1 2,3 3,4 1,0 1,1 2,1 0,0 1,1 1,1 1,0 1,1 2,1 1,0 1,1 2,1 0,0 1,0 2,0 0,0 1,1 1,1 1,0 2,0 2,0 1,0 2,0 2,0zm16 -39c2,2 4,4 5,6 2,2 3,4 4,6 0,3 1,5 1,8 0,2 0,5 -1,8 -1,3 -1,5 -3,7 -1,3 -3,5 -4,6 -2,2 -4,4 -7,5 -2,1 -5,2 -7,2 -1,0 -2,0 -3,0 -1,0 -2,0 -3,0 -1,0 -2,0 -3,0 -1,0 -2,0 -2,0 -1,-1 -2,-1 -3,-1 -1,-1 -2,-1 -3,-1 -1,-1 -2,-1 -2,-2 -1,0 -2,-1 -3,-1 -2,-2 -4,-4 -5,-6 -2,-2 -3,-4 -4,-7 -1,-2 -1,-5 -1,-7 0,-3 0,-6 1,-9 1,-2 2,-5 3,-7 1,-2 3,-4 5,-6 2,-1 4,-3 6,-4 2,-1 5,-1 7,-2 1,0 2,0 3,0 1,0 2,0 3,0 1,0 2,0 3,0 1,0 2,1 3,1 1,0 1,0 2,1 1,0 2,0 3,1 1,0 2,0 2,1 1,0 2,1 3,1z"/>
  <path class="fil2" d="M534 1054c3,0 5,4 5,9l1 -2 4 4 -4 3 -1 -1c-1,4 -3,7 -5,7 -3,0 -5,-4 -5,-10 0,-5 2,-10 5,-10z"/>
  <path class="fil2" d="M500 733c-6,0 -11,-2 -13,-8l-16 -281c0,-8 0,-12 -5,-15 -10,-6 -29,9 -41,15l-102 57c-4,2 -9,5 -13,7 -19,13 -18,23 -16,42 1,7 2,13 2,20 1,7 1,13 2,20l22 216c1,14 2,27 4,40l11 118c1,13 3,26 4,40 2,26 6,53 8,79 1,13 3,26 4,39 0,9 1,11 6,16 4,3 9,5 17,5l131 0c1,0 1,0 1,0l0 0 0 0 44 23c0,0 0,0 0,0l0 0 0 0c1,0 2,0 2,0 1,-1 1,-2 1,-3l0 0 -2 -4 0 0 0 0 0 0 0 0c-1,0 -1,0 -1,0l0 0 -39 -20 -8 -217 38 16 0 0c1,0 1,0 2,0l0 0 0 0 0 0 2 -1 0 0c1,-1 1,-1 1,-1 0,-1 0,-3 -1,-3l0 0c0,0 0,0 0,0l-42 -18 80 -12 7 240 133 0c13,0 20,-12 20,-25l0 -828c0,-4 -1,-8 -2,-11 -7,-10 -18,-3 -25,1 -5,3 -9,5 -15,8 -5,3 -9,6 -14,9 -32,17 -72,39 -102,57 -21,12 -21,27 -20,49l10 290c-2,23 -31,26 -57,35 -4,1 -14,5 -18,5zm272 -446l-1 831c0,12 5,24 22,24l123 0 15 -204c2,-13 -1,-28 10,-28 11,0 13,15 16,27l63 206 152 -1c14,-6 2,-23 -1,-30l-95 -279c-9,-15 -3,-22 6,-34l156 -250c0,-1 2,-2 2,-5 0,-3 -2,-7 -5,-10l-4 -4 -102 -75c-9,-6 -14,-7 -26,-7 -10,0 -15,12 -23,22l-112 194c-5,8 -15,25 -21,25 -14,0 -9,-21 -9,-24l12 -269c1,-16 3,-18 -4,-31 -2,-5 -6,-11 -14,-16l-130 -73c-11,-5 -30,-7 -30,11z"/>
 </g>
</svg>
