<svg width="40" height="40" viewBox="0 0 40 40" fill="none" xmlns="http://www.w3.org/2000/svg">
<path d="M31.2641 10.2714C31.0305 10.1528 30.803 10.0228 30.5826 9.88182C29.9418 9.46567 29.3542 8.97531 28.8326 8.42131C27.5274 6.95443 27.04 5.46629 26.8604 4.42439H26.8676C26.7176 3.55956 26.7797 3 26.789 3H20.8444V25.5791C20.8444 25.8823 20.8444 26.1819 20.8315 26.478C20.8315 26.5148 20.8278 26.5488 20.8257 26.5884C20.8257 26.6047 20.8257 26.6217 20.8221 26.6387V26.6515C20.7594 27.4616 20.495 28.2442 20.0522 28.9304C19.6093 29.6166 19.0016 30.1854 18.2824 30.5868C17.5329 31.0056 16.6852 31.2254 15.8228 31.2243C13.0531 31.2243 10.8084 29.0059 10.8084 26.2662C10.8084 23.5265 13.0531 21.3081 15.8228 21.3081C16.3471 21.3076 16.8682 21.3886 17.3666 21.5482L17.3739 15.6027C15.8606 15.4107 14.3232 15.5289 12.8587 15.9497C11.3942 16.3705 10.0344 17.0849 8.86508 18.0478C7.84047 18.9223 6.97908 19.9656 6.31966 21.131C6.06873 21.556 5.12194 23.2637 5.00729 26.0353C4.93518 27.6084 5.41615 29.2382 5.64545 29.9118V29.9259C5.78967 30.3226 6.34851 31.6762 7.25923 32.8172C7.99361 33.7325 8.86125 34.5366 9.83422 35.2035V35.1893L9.84864 35.2035C12.7265 37.1244 15.9173 36.9983 15.9173 36.9983C16.4696 36.9763 18.3199 36.9983 20.4212 36.0201C22.7517 34.9357 24.0785 33.3201 24.0785 33.3201C24.9261 32.3548 25.6001 31.2546 26.0716 30.0669C26.6095 28.6779 26.789 27.012 26.789 26.3462V14.3675C26.8611 14.41 27.8216 15.034 27.8216 15.034C27.8216 15.034 29.2054 15.9052 31.3643 16.4725C32.9132 16.8763 35 16.9613 35 16.9613V11.1646C34.2688 11.2425 32.7841 11.0158 31.2641 10.2714Z" fill="#97EBE5"/>
</svg>
