<svg width="40" height="40" viewBox="0 0 40 40" fill="none" xmlns="http://www.w3.org/2000/svg">
<path d="M35 35V18.75M5 18.75V35M2.5 36.25H37.5M22.5 36.25V24.375C22.5 23.8777 22.6975 23.4008 23.0492 23.0492C23.4008 22.6975 23.8777 22.5 24.375 22.5H29.375C29.8723 22.5 30.3492 22.6975 30.7008 23.0492C31.0525 23.4008 31.25 23.8777 31.25 24.375V36.25M29.8805 3.75H10.1195C8.41719 3.75 6.87969 4.6875 6.21875 6.12969L2.83594 13.5156C1.69687 16.0008 3.58828 18.8164 6.52266 18.9062H6.67891C9.13203 18.9062 11.1203 16.9391 11.1203 14.8258C11.1203 16.9352 13.1094 18.9062 15.5625 18.9062C18.0156 18.9062 20 17.0797 20 14.8258C20 16.9352 21.9883 18.9062 24.4414 18.9062C26.8945 18.9062 28.8836 17.0797 28.8836 14.8258C28.8836 17.0797 30.8719 18.9062 33.325 18.9062H33.4773C36.4117 18.8148 38.3031 15.9992 37.1641 13.5156L33.7812 6.12969C33.1203 4.6875 31.5828 3.75 29.8805 3.75ZM10.625 22.5H16.875C17.3723 22.5 17.8492 22.6975 18.2008 23.0492C18.5525 23.4008 18.75 23.8777 18.75 24.375V31.25H8.75V24.375C8.75 23.8777 8.94754 23.4008 9.29917 23.0492C9.65081 22.6975 10.1277 22.5 10.625 22.5Z" stroke="#003333" stroke-width="2.5" stroke-linecap="round" stroke-linejoin="round"/>
</svg>
