<svg width="50" height="51" viewBox="0 0 50 51" fill="none" xmlns="http://www.w3.org/2000/svg">
<path d="M25 5.96875C14.2305 5.96875 5.46875 14.7305 5.46875 25.5C5.46875 36.2695 14.2305 45.0312 25 45.0312C35.7695 45.0312 44.5312 36.2695 44.5312 25.5C44.5312 14.7305 35.7695 5.96875 25 5.96875ZM25 13.9766C25.5022 13.9766 25.9931 14.1255 26.4106 14.4045C26.8282 14.6835 27.1536 15.08 27.3458 15.544C27.538 16.0079 27.5882 16.5184 27.4903 17.011C27.3923 17.5035 27.1505 17.9559 26.7954 18.311C26.4403 18.6661 25.9879 18.9079 25.4953 19.0059C25.0028 19.1039 24.4923 19.0536 24.0283 18.8614C23.5644 18.6692 23.1678 18.3438 22.8888 17.9263C22.6099 17.5087 22.4609 17.0178 22.4609 16.5156C22.4609 15.8422 22.7284 15.1964 23.2046 14.7202C23.6808 14.2441 24.3266 13.9766 25 13.9766ZM29.6875 36.0469H21.0938C20.6793 36.0469 20.2819 35.8823 19.9889 35.5892C19.6959 35.2962 19.5312 34.8988 19.5312 34.4844C19.5312 34.07 19.6959 33.6725 19.9889 33.3795C20.2819 33.0865 20.6793 32.9219 21.0938 32.9219H23.8281V24.3281H22.2656C21.8512 24.3281 21.4538 24.1635 21.1608 23.8705C20.8677 23.5775 20.7031 23.18 20.7031 22.7656C20.7031 22.3512 20.8677 21.9538 21.1608 21.6608C21.4538 21.3677 21.8512 21.2031 22.2656 21.2031H25.3906C25.805 21.2031 26.2025 21.3677 26.4955 21.6608C26.7885 21.9538 26.9531 22.3512 26.9531 22.7656V32.9219H29.6875C30.1019 32.9219 30.4993 33.0865 30.7924 33.3795C31.0854 33.6725 31.25 34.07 31.25 34.4844C31.25 34.8988 31.0854 35.2962 30.7924 35.5892C30.4993 35.8823 30.1019 36.0469 29.6875 36.0469Z" fill="#036D6D"/>
</svg>
