<svg width="40" height="40" viewBox="0 0 40 40" fill="none" xmlns="http://www.w3.org/2000/svg">
<path d="M30.547 37.5C29.022 37.5 26.8798 36.9484 23.672 35.1563C19.7712 32.9688 16.754 30.9492 12.8744 27.0797C9.13373 23.3414 7.31342 20.9211 4.76577 16.2852C1.88764 11.0508 2.37827 8.30704 2.9267 7.13438C3.57983 5.73282 4.54389 4.89454 5.78998 4.06251C6.49776 3.59879 7.24676 3.20127 8.02748 2.87501C8.10561 2.84141 8.17827 2.80938 8.24311 2.78048C8.62983 2.60626 9.21577 2.34298 9.95795 2.62423C10.4533 2.81016 10.8955 3.19063 11.5876 3.87423C13.0072 5.27423 14.947 8.39219 15.6626 9.92344C16.1431 10.9555 16.4611 11.6367 16.4619 12.4008C16.4619 13.2953 16.0119 13.9852 15.4658 14.7297C15.3634 14.8695 15.2619 15.0031 15.1634 15.1328C14.5689 15.9141 14.4384 16.1399 14.5244 16.543C14.6986 17.3531 15.9978 19.7649 18.133 21.8953C20.2681 24.0258 22.6103 25.243 23.4236 25.4164C23.8439 25.5063 24.0744 25.3703 24.8806 24.7547C24.9962 24.6664 25.115 24.575 25.2392 24.4836C26.072 23.8641 26.7298 23.4258 27.6033 23.4258H27.608C28.3681 23.4258 29.0189 23.7555 30.097 24.2992C31.5033 25.0086 34.715 26.9234 36.1236 28.3445C36.8087 29.0352 37.1908 29.4758 37.3775 29.9703C37.6587 30.7149 37.3939 31.2984 37.2212 31.6891C37.1923 31.7539 37.1603 31.825 37.1267 31.9039C36.7979 32.6832 36.398 33.4307 35.9322 34.1367C35.1017 35.3789 34.2603 36.3406 32.8556 36.9945C32.1343 37.3357 31.3449 37.5086 30.547 37.5Z" fill="#97EBE5"/>
</svg>
