<svg width="30" height="30" viewBox="0 0 30 30" fill="none" xmlns="http://www.w3.org/2000/svg">
<path d="M27.9252 13.3037L27.9158 13.2996L2.8916 2.92028C2.68112 2.83218 2.45209 2.79763 2.22498 2.81972C1.99788 2.8418 1.7798 2.91984 1.59023 3.04684C1.38996 3.17807 1.22545 3.35703 1.11151 3.56763C0.997569 3.77822 0.937773 4.01384 0.9375 4.25328V10.8914C0.937612 11.2187 1.05191 11.5357 1.26069 11.7878C1.46948 12.04 1.75967 12.2113 2.08125 12.2724L15.7295 14.7961C15.7831 14.8062 15.8315 14.8348 15.8663 14.8768C15.9012 14.9189 15.9202 14.9717 15.9202 15.0263C15.9202 15.0809 15.9012 15.1338 15.8663 15.1758C15.8315 15.2179 15.7831 15.2464 15.7295 15.2566L2.08184 17.7802C1.76035 17.8412 1.47017 18.0123 1.26129 18.2642C1.05242 18.5161 0.93791 18.8329 0.9375 19.1601V25.7994C0.937345 26.028 0.993958 26.2531 1.10226 26.4545C1.21056 26.6558 1.36716 26.8272 1.55801 26.9531C1.78758 27.1056 2.057 27.1871 2.33262 27.1875C2.52423 27.1873 2.71388 27.1488 2.89043 27.0744L27.9141 16.7543L27.9252 16.749C28.262 16.6042 28.549 16.3639 28.7507 16.0577C28.9524 15.7515 29.0599 15.393 29.0599 15.0263C29.0599 14.6597 28.9524 14.3011 28.7507 13.9949C28.549 13.6888 28.262 13.4484 27.9252 13.3037Z" fill="#FCFCFC"/>
</svg>
