<svg width="60" height="60" viewBox="0 0 60 60" fill="none" xmlns="http://www.w3.org/2000/svg">
<path d="M47.8125 5.625H12.1875C9.9505 5.62748 7.80583 6.51723 6.22403 8.09903C4.64223 9.68083 3.75248 11.8255 3.75 14.0625V36.5625C3.75248 38.7995 4.64223 40.9442 6.22403 42.526C7.80583 44.1078 9.9505 44.9975 12.1875 45H15V52.5C14.9999 52.8565 15.1014 53.2057 15.2927 53.5065C15.484 53.8074 15.7571 54.0474 16.08 54.1986C16.4028 54.3498 16.7621 54.4058 17.1157 54.36C17.4692 54.3142 17.8024 54.1686 18.0762 53.9402L28.7977 45H47.8125C50.0495 44.9975 52.1942 44.1078 53.776 42.526C55.3578 40.9442 56.2475 38.7995 56.25 36.5625V14.0625C56.2475 11.8255 55.3578 9.68083 53.776 8.09903C52.1942 6.51723 50.0495 5.62748 47.8125 5.625ZM18.75 29.0625C18.0083 29.0625 17.2833 28.8426 16.6666 28.4305C16.0499 28.0185 15.5693 27.4328 15.2855 26.7476C15.0016 26.0623 14.9274 25.3083 15.0721 24.5809C15.2167 23.8535 15.5739 23.1853 16.0984 22.6609C16.6228 22.1364 17.291 21.7792 18.0184 21.6346C18.7458 21.4899 19.4998 21.5641 20.1851 21.848C20.8703 22.1318 21.456 22.6124 21.868 23.2291C22.2801 23.8458 22.5 24.5708 22.5 25.3125C22.5 26.3071 22.1049 27.2609 21.4016 27.9641C20.6984 28.6674 19.7446 29.0625 18.75 29.0625ZM30 29.0625C29.2583 29.0625 28.5333 28.8426 27.9166 28.4305C27.2999 28.0185 26.8193 27.4328 26.5355 26.7476C26.2516 26.0623 26.1774 25.3083 26.3221 24.5809C26.4667 23.8535 26.8239 23.1853 27.3484 22.6609C27.8728 22.1364 28.541 21.7792 29.2684 21.6346C29.9958 21.4899 30.7498 21.5641 31.4351 21.848C32.1203 22.1318 32.706 22.6124 33.118 23.2291C33.5301 23.8458 33.75 24.5708 33.75 25.3125C33.75 26.3071 33.3549 27.2609 32.6516 27.9641C31.9484 28.6674 30.9946 29.0625 30 29.0625ZM41.25 29.0625C40.5083 29.0625 39.7833 28.8426 39.1666 28.4305C38.5499 28.0185 38.0693 27.4328 37.7854 26.7476C37.5016 26.0623 37.4274 25.3083 37.5721 24.5809C37.7168 23.8535 38.0739 23.1853 38.5984 22.6609C39.1228 22.1364 39.791 21.7792 40.5184 21.6346C41.2458 21.4899 41.9998 21.5641 42.6851 21.848C43.3703 22.1318 43.956 22.6124 44.368 23.2291C44.7801 23.8458 45 24.5708 45 25.3125C45 26.3071 44.6049 27.2609 43.9016 27.9641C43.1984 28.6674 42.2446 29.0625 41.25 29.0625Z" fill="#036D6D"/>
</svg>
