<svg width="50" height="50" viewBox="0 0 50 50" fill="none" xmlns="http://www.w3.org/2000/svg">
<circle cx="24.5" cy="24.5" r="12.5" fill="#FCFCFC"/>
<path d="M45.3125 25C45.3125 13.7822 36.2178 4.6875 25 4.6875C13.7822 4.6875 4.6875 13.7822 4.6875 25C4.6875 36.2178 13.7822 45.3125 25 45.3125C36.2178 45.3125 45.3125 36.2178 45.3125 25ZM24.5459 33.9219C24.4002 33.7774 24.2844 33.6056 24.2051 33.4163C24.1258 33.227 24.0845 33.0239 24.0837 32.8187C24.0829 32.6135 24.1225 32.4101 24.2003 32.2202C24.2781 32.0303 24.3926 31.8576 24.5371 31.7119L29.6465 26.5625H16.6016C16.1872 26.5625 15.7897 26.3979 15.4967 26.1049C15.2037 25.8118 15.0391 25.4144 15.0391 25C15.0391 24.5856 15.2037 24.1882 15.4967 23.8951C15.7897 23.6021 16.1872 23.4375 16.6016 23.4375H29.6465L24.5371 18.2881C24.3926 18.1423 24.2782 17.9694 24.2005 17.7794C24.1227 17.5894 24.0832 17.3859 24.0841 17.1806C24.085 16.9753 24.1263 16.7722 24.2057 16.5828C24.2851 16.3935 24.4011 16.2217 24.5469 16.0771C24.6927 15.9326 24.8655 15.8182 25.0556 15.7405C25.2456 15.6628 25.4491 15.6232 25.6544 15.6241C26.069 15.626 26.4659 15.7924 26.7578 16.0869L34.5107 23.8994C34.8012 24.1921 34.9641 24.5877 34.9641 25C34.9641 25.4123 34.8012 25.8079 34.5107 26.1006L26.7578 33.9131C26.6133 34.0591 26.4413 34.1751 26.2519 34.2546C26.0624 34.3341 25.8591 34.3754 25.6537 34.3762C25.4482 34.3771 25.2446 34.3373 25.0545 34.2594C24.8645 34.1814 24.6916 34.0667 24.5459 33.9219V33.9219Z" fill="#FC9993"/>
</svg>
